<svg id="svg" version="1.1" xmlns="http://www.w3.org/2000/svg" style="display: block;"
    viewBox="0 0 264 280" width="264" height="280">
    <path
        d="M0 0h42.847v7.972h0.997v1.993h0.997v1.993h0.997v2.99h0.997v1.993h0.997v2.99h0.997v1.993h0.997v1.993h0.997v2.99h0.997v1.993h0.997v2.99h0.997v1.993h0.997v1.993h0.997v2.99h0.997V40.859h0.997v2.99h0.997v1.993h0.997v1.993h0.997v2.99h0.997v1.993h0.997v2.99h0.997v1.993h0.997v1.993h0.997v2.99h0.997v1.993h0.997v2.99h0.997v1.993h0.997v1.993h0.997v2.99h0.997v1.993h0.997v2.99h0.997v1.993h0.997v1.993h0.997v2.99h0.997v1.993h0.997v2.99h0.997v1.993h0.997v1.993h0.997v2.99h0.997v1.993h0.997v2.99h0.997v1.993h0.997v1.993h0.997v2.99h0.997v1.993h0.997v2.99h0.997v1.993h0.997v1.993h0.997v2.99h0.997v1.993h0.997v2.99h0.997v1.993h0.997v1.993h0.997v2.99h0.997v1.993h0.997v2.99h0.997v1.993h0.997v1.993h0.997v2.99h0.997v1.993h0.997v2.99h0.997v1.993h0.997v1.993h0.997v2.99h0.997v1.993h0.997v2.99h0.997v1.993h0.997v1.993h0.997v2.99h0.997v1.993h0.997v2.99h0.997v-2.99h0.997v-1.993h0.997v-2.99h0.997v-1.993h0.997v-1.993h0.997v-2.99h0.997v-1.993h0.997v-2.99h0.997v-1.993h0.997v-1.993h0.997v-2.99h0.997v-1.993h0.997v-2.99h0.997v-1.993h0.997v-1.993h0.997v-2.99h0.997v-1.993h0.997v-2.99h0.997v-1.993h0.997v-1.993h0.997v-2.99h0.997v-1.993h0.997v-2.99h0.997v-1.993h0.997v-1.993h0.997v-2.99h0.997v-1.993h0.997v-2.99h0.997v-1.993h0.997v-1.993h0.997V100.655h0.997v-1.993h0.997v-2.99h0.997v-1.993h0.997v-1.993h0.997v-2.99h0.997v-1.993h0.997v-2.99h0.997v-1.993h0.997v-1.993h0.997v-2.99h0.997v-1.993h0.997v-2.99h0.997v-1.993h0.997v-1.993h0.997v-2.99h0.997v-1.993h0.997v-2.99h0.997v-1.993h0.997v-1.993h0.997v-2.99h0.997V50.825h0.997v-2.99h0.997v-1.993h0.997v-1.993h0.997V40.859h0.997v-1.993h0.997v-2.99h0.997v-1.993h0.997v-1.993h0.997v-2.99h0.997v-1.993h0.997v-2.99h0.997v-1.993h0.997v-1.993h0.997v-2.99h0.997v-1.993h0.997v-2.99h0.997V9.965h0.997V7.972h0.997V0h42.847v244.128h-42.847V116.584h-0.997v4.982h-0.997v1.993h-0.997v2.99h-0.997v1.993h-0.997v1.993h-0.997v2.99h-0.997v1.993h-0.997v2.99h-0.997v1.993h-0.997v1.993h-0.997v2.99h-0.997v1.993h-0.997v2.99h-0.997v1.993h-0.997v1.993h-0.997v2.99h-0.997v1.993h-0.997v2.99h-0.997v1.993h-0.997v1.993h-0.997v2.99h-0.997v1.993h-0.997v2.99h-0.997v1.993h-0.997v1.993h-0.997v2.99h-0.997v1.993h-0.997v2.99h-0.997v1.993h-0.997v1.993h-0.997v2.99h-0.997v1.993h-0.997v2.99h-0.997v1.993h-0.997v1.993h-0.997v2.99h-0.997v1.993h-0.997v2.99h-0.997v1.993h-0.997v1.993h-0.997v2.99h-0.997v1.993h-0.997v2.99h-0.997v1.993h-0.997v1.993h-0.997v2.99h-0.997v1.993h-0.997v2.99h-0.997v1.993h-0.997v1.993h-0.997v2.99h-0.997v1.993h-0.997v0.997h-0.997v-0.997h-1.993v-0.997h-2.99v-0.997h-1.993v-0.997h-1.993v-0.997h-2.99v-0.997h-1.993v-0.997h-1.993v-0.997h-1.993v0.997h-0.997v0.997h-2.99v0.997h-1.993v0.997h-1.993v0.997h-2.99v0.997h-1.993v0.997h-1.993v0.997h-0.997v-0.997h-0.997v-1.993h-0.997v-2.99h-0.997v-1.993h-0.997v-1.993h-0.997v-2.99h-0.997v-1.993h-0.997v-2.99h-0.997v-1.993h-0.997v-1.993h-0.997v-2.99h-0.997v-1.993h-0.997v-2.99h-0.997v-1.993h-0.997v-1.993h-0.997v-2.99h-0.997v-1.993h-0.997v-2.99h-0.997v-1.993h-0.997v-1.993h-0.997v-2.99h-0.997v-1.993h-0.997v-2.99h-0.997v-1.993h-0.997v-1.993h-0.997v-2.99h-0.997v-1.993h-0.997v-2.99h-0.997v-1.993h-0.997v-1.993h-0.997v-2.99h-0.997v-1.993h-0.997v-2.99h-0.997v-1.993h-0.997v-1.993h-0.997v-2.99h-0.997v-1.993h-0.997v-2.99h-0.997v-1.993h-0.997v-1.993h-0.997v-2.99h-0.997v-1.993h-0.997v-2.99h-0.997v-1.993h-0.997v-1.993h-0.997v-2.99h-0.997v-1.993h-0.997v-2.99h-0.997v-1.993h-0.997v-1.993H45.837v-2.99h-0.997v-1.993h-0.997v-2.99h-0.997v125.551H0Z"
        transform="translate(16 19)" style="fill: #115725;" />
    <path d="M0 0h36.869v238.15H0Z" transform="translate(19 22)" style="fill: #22B14C;" />
    <path
        d="M0 0h0.997v0.997h2.99v0.997h1.993v0.997h2.99v0.997h1.993v0.997h1.993v0.997h2.99v0.997h1.993v0.997h1.993v0.997h2.99v0.997h1.993v0.997h2.99v0.997h1.993v0.997h1.993v0.997h1.993v2.99h-0.997v1.993h-0.997v1.993h-0.997v2.99h-0.997v1.993h-0.997v2.99h-0.997v1.993h-0.997v1.993h-0.997v2.99h-0.997v1.993h-0.997v2.99h-0.997v1.993h-0.997v1.993h-0.997v2.99h-0.997v1.993h-0.997v2.99h-0.997v1.993h-0.997v1.993h-0.997v2.99h-0.997v1.993h-0.997v2.99h-0.997v1.993h-0.997v1.993h-0.997v2.99H9.966v1.993h-0.998v2.99h-0.997v1.993h-0.997v1.993h-0.997v2.99h-0.997v1.993h-0.997v2.99h-0.996v1.993h-0.997v1.993H0.997v2.99H0v2.99h-0.997v2.99h-1.993v2.99h-0.997v2.99h-0.997v1.993h-0.997v2.99h-0.997v1.993h-0.997v1.993h-0.997v2.99h-0.997v1.993h-0.997v2.99h-0.997v1.993h-0.997v2.99h-0.997v1.993h-0.997v1.993h-0.997v2.99h-0.997v1.993h-0.997v2.99h-0.997v1.993h-0.997v1.993h-0.997v2.99h-0.997v1.993h-0.997v2.99h-0.997v1.993h-0.997v1.993h-0.997v2.99h-0.997v1.993h-0.997v2.99h-0.997v1.993h-0.997v1.993h-0.997v2.99h-0.997v1.993h-0.997v2.99h-0.997v1.993h-0.997v1.993h-0.997v2.99h-0.997v1.993h-0.997v2.99h-0.997v1.993h-0.997v1.993h-0.997v2.99h-0.997v1.993h-0.997v2.99h-0.997v1.993h-0.997v1.993h-0.997v2.99h-0.997v1.993h-0.997v2.99h-0.997v1.993h-0.997v1.993h-0.997v2.99h-0.997v-0.997h-0.997v-1.993h-0.997v-2.99h-0.997v-1.993h-0.997v-2.99h-0.997v-1.993h-0.997v-1.993h-0.997v-2.99h-0.997v-1.993h-0.997v-2.99h-0.997v-1.993h-0.997v-1.993h-0.997v-2.99h-0.997v-1.993h-0.997v-2.99h-0.997v-1.993h-0.997v-1.993h-0.997v-2.99h-0.997v-1.993h-0.997v-2.99h-0.997v-0.997h0.997v-2.99h0.997v-1.993h0.997v-2.99h0.997v-1.993h0.997v-1.993h0.997v-2.99h0.997v-1.993h0.997v-2.99h0.997v-1.993h0.997v-1.993h0.997v-2.99h0.997v-1.993h0.997v-2.99h0.997v-1.993h0.997v-1.993h0.997v-2.99h0.997v-1.993h0.997v-2.99h0.997v-1.993h0.997v-1.993h0.997v-2.99h0.997v-1.993h0.997v-2.99h0.997v-1.993h0.997v-1.993h0.997v-2.99h0.997v-1.993h0.997v-2.99h0.997v-1.993h0.997v-1.993h0.997v-2.99h0.997v-1.993h0.997v-2.99h0.997v-1.993h0.997v-1.993h0.997v-2.99h0.997v-1.993h0.997v-2.99h0.997v-1.993h0.997v-1.993h0.997v-2.99h0.997v-1.993h0.997v-2.99h0.997v-1.993h0.997v-1.993h0.997v-2.99h0.997V59.796h0.997v-2.99h0.997v-1.993h0.997v-1.993h0.997V49.83h0.997v-1.993h0.997v-2.99h0.997v-1.993h0.997v-1.993h0.997v-2.99h0.997v-1.993h0.997v-2.99h0.997v-1.993h0.997v-1.993h0.997v-2.99h0.997v-1.993h0.997v-2.99h0.997v-1.993h0.997v-1.993h0.997v-2.99h0.997v-1.993h0.997V8.968h1.993V4.982h0.997V2.99H0Z"
        transform="translate(203 25)" style="fill: #22B14C;" />
    <path
        d="M0 0h0.997v218.221h-36.869V86.69h0.997v-2.99h0.997v-1.993h0.997v-1.993h0.997v-2.99h0.997v-2.99h0.997v-1.993h0.997v-1.993h0.997v-1.993h0.997v-2.99h0.997V62.772h0.997v-2.99h0.997v-1.993h0.997v-1.993h0.997V52.806h0.997v-1.993h0.997v-2.99h0.997v-1.993h0.997v-1.993h0.997v-2.99h0.997v-1.993h0.997v-2.99h0.997v-1.993h0.997v-1.993h0.997v-2.99h0.997v-1.993h0.997v-2.99h0.997v-1.993h0.997v-1.993h0.997v-2.99h0.997v-1.993h0.997v-2.99h0.997V9.952h0.997v-1.981h0.997V4.982h0.997V2.99h0.997Z"
        transform="translate(239 42)" style="fill: #115725;" />
    <path
        d="M0 0h42.847v7.972h0.997v1.993h0.997v1.993h0.997v2.99h0.997v1.993h0.997v2.99h0.997v1.993h0.997v1.993h0.997v2.99h0.997v1.993h0.997v2.99h0.997v1.993h0.997v1.993h0.997v2.99h0.997V40.859h0.997v2.99h0.997v1.993h0.997v1.993h0.997v2.99h0.997v1.993h0.997v2.99h0.997v1.993h0.997v1.993h0.997v2.99h0.997v1.993h0.997v2.99h0.997v1.993h0.997v1.993h0.997v2.99h0.997v1.993h0.997v2.99h0.997v1.993h0.997v1.993h0.997v2.99h0.997v1.993h0.997v2.99h0.997v1.993h0.997v1.993h0.997v2.99h0.997v1.993h0.997v2.99h0.997v1.993h0.997v1.993h0.997v2.99h0.997v1.993h0.997v2.99h0.997v1.993h0.997v1.993h0.997v2.99h0.997v1.993h0.997v2.99h0.997v1.993h0.997v1.993h0.997v2.99h0.997v1.993h0.997v2.99h0.997v1.993h0.997v1.993h0.997v2.99h0.997v1.993h0.997v2.99h0.997v1.993h0.997v1.993h0.997v2.99h0.997v1.993h0.997v2.99h0.997v1.993h0.997v1.993h0.997v2.99h0.997v1.993h0.997v2.99h0.997v-2.99h0.997v-1.993h0.997v-2.99h0.997v-1.993h0.997v-1.993h0.997v-2.99h0.997v-1.993h0.997v-2.99h0.997v-1.993h0.997v-1.993h0.997v-2.99h0.997v-1.993h0.997v-2.99h0.997v-1.993h0.997v-1.993h0.997v-2.99h0.997v-1.993h0.997v-2.99h0.997v-1.993h0.997v-1.993h0.997v-2.99h0.997v-1.993h0.997v-2.99h0.997v-1.993h0.997v-1.993h0.997v-2.99h0.997v-1.993h0.997v-2.99h0.997v-1.993h0.997v-1.993h0.997V100.655h0.997v-1.993h0.997v-2.99h0.997v-1.993h0.997v-1.993h0.997v-2.99h0.997v-1.993h0.997v-2.99h0.997v-1.993h0.997v-1.993h0.997v-2.99h0.997v-1.993h0.997v-2.99h0.997v-1.993h0.997v-1.993h0.997v-2.99h0.997v-1.993h0.997v-2.99h0.997v-1.993h0.997v-1.993h0.997v-2.99h0.997V50.825h0.997v-2.99h0.997v-1.993h0.997v-1.993h0.997V40.859h0.997v-1.993h0.997v-2.99h0.997v-1.993h0.997v-1.993h0.997v-2.99h0.997v-1.993h0.997v-2.99h0.997v-1.993h0.997v-1.993h0.997v-2.99h0.997v-1.993h0.997v-2.99h0.997V9.965h0.997V7.972h0.997V0h42.847v244.128h-42.847V116.584h-0.997v4.982h-0.997v1.993h-0.997v2.99h-0.997v1.993h-0.997v1.993h-0.997v2.99h-0.997v1.993h-0.997v2.99h-0.997v1.993h-0.997v1.993h-0.997v2.99h-0.997v1.993h-0.997v2.99h-0.997v1.993h-0.997v1.993h-0.997v2.99h-0.997v1.993h-0.997v2.99h-0.997v1.993h-0.997v1.993h-0.997v2.99h-0.997v1.993h-0.997v2.99h-0.997v1.993h-0.997v1.993h-0.997v2.99h-0.997v1.993h-0.997v2.99h-0.997v1.993h-0.997v1.993h-0.997v2.99h-0.997v1.993h-0.997v2.99h-0.997v1.993h-0.997v1.993h-0.997v2.99h-0.997v1.993h-0.997v2.99h-0.997v1.993h-0.997v1.993h-0.997v2.99h-0.997v1.993h-0.997v2.99h-0.997v1.993h-0.997v1.993h-0.997v2.99h-0.997v1.993h-0.997v2.99h-0.997v1.993h-0.997v1.993h-0.997v2.99h-0.997v1.993h-0.997v0.997h-0.997v-0.997h-1.993v-0.997h-2.99v-0.997h-1.993v-0.997h-1.993v-0.997h-2.99v-0.997h-1.993v-0.997h-1.993v-0.997h-1.993v0.997h-0.997v0.997h-2.99v0.997h-1.993v0.997h-1.993v0.997h-2.99v0.997h-1.993v0.997h-1.993v0.997h-0.997v-0.997h-0.997v-1.993h-0.997v-2.99h-0.997v-1.993h-0.997v-1.993h-0.997v-2.99h-0.997v-1.993h-0.997v-2.99h-0.997v-1.993h-0.997v-1.993h-0.997v-2.99h-0.997v-1.993h-0.997v-2.99h-0.997v-1.993h-0.997v-1.993h-0.997v-2.99h-0.997v-1.993h-0.997v-2.99h-0.997v-1.993h-0.997v-1.993h-0.997v-2.99h-0.997v-1.993h-0.997v-2.99h-0.997v-1.993h-0.997v-1.993h-0.997v-2.99h-0.997v-1.993h-0.997v-2.99h-0.997v-1.993h-0.997v-1.993h-0.997v-2.99h-0.997v-1.993h-0.997v-2.99h-0.997v-1.993h-0.997v-1.993h-0.997v-2.99h-0.997v-1.993h-0.997v-2.99h-0.997v-1.993h-0.997v-1.993h-0.997v-2.99h-0.997v-1.993h-0.997v-2.99h-0.997v-1.993h-0.997v-1.993h-0.997v-2.99h-0.997v-1.993h-0.997v-2.99h-0.997v-1.993h-0.997v-1.993H45.837v-2.99h-0.997v-1.993h-0.997v-2.99h-0.997v125.551H0Zm2.99 2.99v238.15h36.869V2.99ZM186.335 5.98v2.99h-0.997v1.993h-0.997v3.985h-1.993v2.99h-0.997v1.993h-0.997v2.99h-0.997v1.993h-0.997v1.993h-0.997v2.99h-0.997v1.993h-0.997v2.99h-0.997v1.993h-0.997v1.993h-0.997v2.99h-0.997v1.993h-0.997v2.99h-0.997v1.993h-0.997v1.993h-0.997v2.99h-0.997v1.993h-0.997v2.99h-0.997v1.993h-0.997v1.993h-0.997v2.99h-0.997v1.993h-0.997v2.99h-0.997v1.993h-0.997v1.993h-0.997v2.99h-0.997v1.993h-0.997v2.99h-0.997v1.993h-0.997v1.993h-0.997v2.99h-0.997v1.993h-0.997v2.99h-0.997v1.993h-0.997v1.993h-0.997v2.99h-0.997v1.993h-0.997v2.99h-0.997v1.993h-0.997v1.993h-0.997v2.99h-0.997v1.993h-0.997v2.99h-0.997v1.993h-0.997v1.993h-0.997v2.99h-0.997v1.993h-0.997v2.99h-0.997v1.993h-0.997v1.993h-0.997v2.99h-0.997v1.993h-0.997v2.99h-0.997v1.993h-0.997v1.993h-0.997v2.99h-0.997v1.993h-0.997v2.99h-0.997v1.993h-0.997v1.993h-0.997v2.99h-0.997v1.993h-0.997v2.99h-0.997v1.993h-0.997v1.993h-0.997v2.99h-0.997v1.993h-0.997v2.99h-0.997v0.997h0.997v2.99h0.997v1.993h0.997v2.99h0.997v1.993h0.997v1.993h0.997v2.99h0.997v1.993h0.997v2.99h0.997v1.993h0.997v1.993h0.997v2.99h0.997v1.993h0.997v2.99h0.997v1.993h0.997v1.993h0.997v2.99h0.997v1.993h0.997v2.99h0.997v1.993h0.997v0.997h0.997v-2.99h0.997v-1.993h0.997v-1.993h0.997v-2.99h0.997v-1.993h0.997v-2.99h0.997v-1.993h0.997v-1.993h0.997v-2.99h0.997v-1.993h0.997v-2.99h0.997v-1.993h0.997v-1.993h0.997v-2.99h0.997v-1.993h0.997v-2.99h0.997v-1.993h0.997v-1.993h0.997v-2.99h0.997v-1.993h0.997v-2.99h0.997v-1.993h0.997v-1.993h0.997v-2.99h0.997v-1.993h0.997v-2.99h0.997v-1.993h0.997v-1.993h0.997v-2.99h0.997v-1.993h0.997v-2.99h0.997v-1.993h0.997v-1.993h0.997v-2.99h0.997v-1.993h0.997v-2.99h0.997v-1.993h0.997v-1.993h0.997v-2.99h0.997v-1.993h0.997v-2.99h0.997v-1.993h0.997v-2.99h0.997v-1.993h0.997v-1.993h0.997v-2.99h0.997v-1.993h0.997v-2.99h0.997v-2.99h1.993v-2.99h0.997v-2.99h0.997v-2.99h0.997v-1.993h0.997v-1.993h0.997v-2.99h0.997v-1.993h0.997v-2.99h0.997v-1.993h0.997v-1.993h0.997v-2.99h0.997v-1.993h0.997v-2.99h0.997v-1.993h0.997V70.757h0.997v-2.99h0.997v-1.993h0.997v-2.99h0.997V60.791h0.997v-1.993h0.997v-2.99h0.997v-1.993h0.997V50.825h0.997v-1.993h0.997v-1.993h0.997v-2.99h0.997v-1.993h0.997v-2.99h0.997v-1.993h0.997v-1.993h0.997v-2.99h0.997v-1.993h0.997v-2.99h0.997v-1.993h0.997v-1.993h0.997v-2.99h-1.993v-0.997h-1.993v-0.997h-1.993v-0.997h-2.99v-0.997h-1.993v-0.997H206.267v-0.997h-1.993v-0.997h-1.993v-0.997h-2.99v-0.997h-1.993v-0.997h-1.993v-0.997h-2.99v-0.997h-1.993v-0.997h-2.99v-0.997ZM42.847 14.947v97.652h0.997v1.993h0.997v0.997h0.997v2.99h0.997v1.993h0.997v1.993h0.997v2.99h0.997v1.993h0.997v2.99h0.997v1.993h0.997v2.99h0.997v1.993h0.997v1.993h0.997v2.99h0.997v1.993h0.997v2.99h0.997v1.993h0.997v1.993h0.997v2.99h0.997v1.993h0.997v2.99h0.997v1.993h0.997v1.993h0.997v2.99h0.997v1.993h0.997v2.99h0.997v1.993h0.997v1.993h0.997v2.99h0.997v1.993h0.997v2.99h0.997v1.993h0.997v1.993h0.997v2.99h0.997v1.993h0.997v2.99h0.997v1.993h0.997v1.993h0.997v2.99h0.997v1.993h0.997v2.99h0.997v1.993h0.997v1.993h0.997v2.99h0.997v1.993h0.997v2.99h0.997v1.993h0.997v1.993h0.997v3.985h0.997v1.993h0.997v1.993h0.997v1.993h0.997v1.993h0.997v2.99h0.997v1.993h0.997v-0.997h2.99v-0.997h1.993v-0.997h2.99v-0.997h1.993v-0.997h1.993v-0.997h2.99v-0.997h1.993v-0.997h2.99v-0.997h1.993v-0.997h1.993v-0.997h2.99v-0.997h1.993v-0.997h2.99v-0.997h0.997v-2.99h-0.997v-1.993h-0.997v-2.99h-0.997v-1.993h-0.997v-1.993h-0.997v-2.99h-0.997v-1.993h-0.997v-2.99h-0.997v-1.993h-0.997v-1.993h-0.997v-2.99h-0.997v-1.993h-0.997v-2.99h-0.997v-1.993h-0.997v-1.993h-0.997v-2.99h-0.997v-1.993h-0.997v-2.99h-0.997v-2.99h-0.997v-0.997h-0.997v-2.99h-0.997v-1.993h-0.997v-2.99h-0.997v-1.993h-0.997v-1.993h-0.997v-2.99h-0.997v-1.993h-0.997v-2.99h-0.997v-1.993h-0.997v-1.993h-0.997v-2.99h-0.997v-1.993h-0.997v-2.99h-0.997v-1.993h-0.997v-1.993h-0.997v-2.99h-0.997v-1.993h-0.997v-2.99h-0.997v-1.993h-0.997v-1.993h-0.997v-2.99h-0.997v-1.993h-0.997v-2.99h-0.997v-1.993h-0.997v-1.993h-0.997v-2.99h-0.997v-1.993h-0.997v-2.99h-0.997v-1.993h-0.997v-1.993h-0.997v-2.99h-0.997v-1.993h-0.997v-2.99h-0.997V96.652h-0.997v-1.993h-0.997v-2.99h-0.997v-1.993h-0.997V86.686h-0.997v-1.993h-0.997v-1.993h-0.997v-2.99h-0.997v-1.993h-0.997v-2.99h-0.997v-1.993h-0.997v-1.993h-0.997v-2.99h-0.997v-1.993h-0.997v-2.99h-0.997v-1.993h-0.997v-1.993h-0.997v-2.99h-0.997v-1.993h-0.997v-2.99h-0.997v-1.993h-0.997V46.822h-0.997v-2.99h-0.997v-1.993h-0.997v-2.99h-0.997V36.856h-0.997v-1.993h-0.997v-2.99h-0.997v-1.993h-0.997V26.89h-0.997v-1.993h-0.997v-1.993H45.837v-2.99h-0.997v-1.993h-0.997v-2.99ZM222.207 22.919v2.99h-0.997v1.993h-0.997v2.99h-0.997v1.993h-0.997v1.993h-0.997v2.99h-0.997v1.993h-0.997v2.99h-0.997v1.993h-0.997v1.993h-0.997v2.99h-0.997v1.993h-0.997v2.99h-0.997v1.993h-0.997v1.993h-0.997v2.99h-0.997v1.993h-0.997v2.99h-0.997v1.993h-0.997v1.993h-0.997v2.99h-0.997v1.993h-0.997v2.99h-0.997v1.993h-0.997v1.993h-0.997v2.99h-0.997v1.993h-0.997v2.99h-0.997v1.993h-0.997v1.993h-0.997v1.993h-0.997v2.99h-0.997v2.99h-0.997v1.993h-0.997v1.993h-0.997v2.99h-0.997V241.153h36.869V22.919Z"
        transform="translate(16 19)" style="fill: #000000;" />
    <path
        d="M0 0h34.876v14.947h-1.993v-0.997h-1.993v-0.997h-2.99v-0.997h-1.993v-0.997h-1.993v-0.997h-2.99v-0.996h-1.993v-0.997h-1.993v-0.997h-3.985v-0.997h-0.997v-0.997h-2.987v-0.997H6.975v-0.996H3.985v-0.997H1.993V0.997H0Z"
        transform="translate(205 22)" style="fill: #115725;" />
    <path
        d="M0 0h0.997v2.99H0v1.993h-0.997v1.993h-0.997V9.966h-0.997v1.993h-0.997v-0.997h-2.99V9.966h-1.993v-0.998h-2.99v-0.997h-1.993v-0.997h-0.997v-0.997h2.99v-0.997h1.993v-0.997h1.993v-0.996h2.99v-0.997h1.993V0.997H0Z"
        transform="translate(149 248)" style="fill: #22B14C;" />
</svg>